<?xml version="1.0" encoding="UTF-8" standalone="no"?>
<!DOCTYPE svg PUBLIC "-//W3C//DTD SVG 1.1//EN" "http://www.w3.org/Graphics/SVG/1.1/DTD/svg11.dtd">
<svg version="1.1" xmlns="http://www.w3.org/2000/svg" xmlns:xlink="http://www.w3.org/1999/xlink" preserveAspectRatio="xMidYMid meet" viewBox="0 0 640 640" width="1920" height="1920"><defs><path d="M536.77 142.59C535.14 139.83 533.52 137.07 530.68 134.7C528.25 132.33 525.81 130.36 522.97 129.18C517.7 124.44 512.43 119.71 507.15 115.37C505.94 111.43 503.91 107.48 500.66 103.93C496.61 99.2 491.33 95.65 485.66 93.28C484.44 87.76 481.6 79.87 474.3 73.17C466.59 66.07 457.67 63.7 451.58 63.31C447.93 57.79 441.44 50.29 430.89 45.17C419.94 40.04 409.39 39.64 402.5 40.43C393.17 34.52 363.15 17.16 321.37 17.16C279.59 17.16 249.57 34.12 240.24 40.43C233.35 39.64 222.8 40.04 211.85 45.17C201.3 50.29 194.81 57.39 191.16 63.31C185.08 63.7 176.15 66.07 168.44 73.17C161.14 79.87 158.3 87.76 157.09 93.28C151.41 95.65 146.13 99.6 142.08 103.93C138.83 107.88 136.8 111.82 135.59 115.37C129.91 119.71 124.63 124.44 119.77 129.18C117.33 130.75 114.49 132.33 112.06 134.7C109.63 137.07 107.6 139.83 105.97 142.59C57.7 193.47 28.09 261.31 28.09 335.85C28.09 473.5 128.69 588.68 262.15 615.1C262.15 615.1 262.15 615.1 262.15 615.1C266.2 616.28 269.85 617.07 273.1 617.47C282.02 633.64 295.41 641.13 295.82 641.53C296.09 641.69 297.44 642.47 299.87 643.89C302.31 642.47 303.66 641.69 303.93 641.53C304.33 641.13 313.26 636.4 321.37 625.75C329.48 636.4 338.41 641.13 338.81 641.53C339.08 641.69 340.44 642.47 342.87 643.89C345.3 642.47 346.66 641.69 346.93 641.53C347.74 641.13 361.12 633.64 369.64 617.47C372.89 617.07 376.54 616.28 380.59 615.1C380.59 615.1 380.59 615.1 380.59 615.1C514.05 588.28 614.65 473.5 614.65 335.85C614.65 261.31 585.04 193.47 536.77 142.59M538.79 176.9C544.07 184.4 549.75 195.04 551.78 208.46C552.18 210.03 552.18 211.61 552.18 213.19C548.94 218.71 539.2 234.49 522.97 241.98C510.4 247.9 498.23 249.08 489.71 248.69C490.52 240.8 490.52 233.3 490.12 225.81C499.45 223.05 512.02 217.13 522.97 205.3C531.9 196.23 536.36 185.97 538.79 176.9M438.6 505.06C438.2 506.24 437.79 507.03 436.98 507.82C435.76 503.48 434.54 498.75 432.92 494.41C431.3 490.46 429.68 486.52 427.65 482.97C434.95 478.24 439.41 470.74 441.04 466.01C441.36 465.14 442.98 460.8 445.9 452.99C437.63 454.41 433.03 455.2 432.11 455.36C427.24 456.15 423.19 455.76 419.13 454.97C422.78 452.6 426.43 449.05 429.68 445.11C434.54 439.19 436.98 433.27 438.6 428.15C442.25 428.15 446.71 428.54 451.18 430.51C455.64 432.49 458.88 435.64 460.91 438.01C462.13 441.56 464.56 451.02 459.69 460.09C456.04 467.19 449.55 471.14 446.31 472.72C445.93 472.9 444.04 473.82 440.63 475.48L441.85 481.39C442.93 490.6 441.85 498.48 438.6 505.06ZM321.37 470.74C330.29 470.74 339.22 471.53 348.55 472.72C342.46 477.45 333.54 482.18 322.59 482.18C322.18 482.18 322.18 482.18 321.78 482.18C310.42 482.18 301.09 477.45 294.6 472.72C303.52 471.53 312.45 470.74 321.37 470.74M257.68 465.62C241.05 471.14 234.16 472.32 231.32 472.32C229.29 472.32 227.67 471.93 226.45 471.14C252.82 466.41 268.64 442.74 273.5 434.46C279.59 432.09 295.82 426.96 313.26 425.39C313.26 428.38 313.26 452.36 313.26 455.36C294.6 455.76 275.94 459.31 257.68 465.62M329.48 454.97C329.48 436.98 329.48 426.99 329.48 424.99C346.52 426.57 362.75 431.7 369.24 434.06C374.1 442.35 389.92 466.01 416.29 470.74C414.67 471.53 413.05 471.93 411.42 471.93C408.58 471.93 401.69 471.14 385.06 465.22C366.8 459.31 348.14 455.76 329.48 454.97M401.28 446.29C389.52 437.22 383.03 424.2 382.62 424.2C382.54 424.02 382.14 423.1 381.41 421.44C379.7 420.73 378.76 420.34 378.57 420.26C377.75 419.86 360.31 412.76 339.22 410C345.3 406.85 350.58 402.11 354.23 396.2C355.15 396.2 359.74 396.2 368.02 396.2L368.02 380.03L343.68 380.03C342.46 383.1 341.79 384.81 341.65 385.15C338.41 393.04 330.29 398.17 321.78 397.78C321.78 397.78 321.78 397.78 321.78 397.78C321.78 397.78 321.78 397.78 321.78 397.78C313.26 397.78 305.15 392.65 301.9 385.15C301.76 384.81 301.09 383.1 299.87 380.03L275.53 380.03L275.53 396.2C283.81 396.2 288.41 396.2 289.32 396.2C292.98 402.11 298.25 406.85 304.74 410C283.65 413.16 266.2 419.86 265.39 420.26C265.2 420.34 264.26 420.73 262.55 421.44C261.82 423.1 261.42 424.02 261.34 424.2C261.34 424.6 254.85 437.22 242.68 446.29C238.62 444.71 232.13 441.56 226.86 435.25C222.39 429.33 220.37 423.41 219.96 419.47C219.93 419.31 219.8 418.52 219.55 417.1C218.58 415.92 218.04 415.26 217.93 415.13C202.92 398.96 191.57 380.82 184.26 360.31C173.31 329.15 174.53 301.14 177.77 283C177.8 282.87 177.94 282.21 178.18 281.03C177.94 279.84 177.8 279.19 177.77 279.06C163.58 235.28 170.88 178.87 203.73 167.83C216.31 163.49 230.91 168.62 241.46 174.14C245.52 176.9 270.67 193.86 305.55 198.59C309.2 198.99 315.29 199.78 322.99 199.78C329.89 199.78 337.6 199.38 346.52 197.41C350.58 196.62 354.63 195.44 359.1 193.86C360.04 193.55 364.77 191.97 373.29 189.13C366.23 183.69 362.31 180.66 361.53 180.06C355.04 175.32 349.77 169.41 345.3 162.7C342.87 159.15 340.84 155.6 339.22 151.66C345.3 151.66 352.61 152.45 359.91 155.6C373.29 161.12 381 170.99 384.25 176.11C384.54 176.59 386.03 178.95 388.71 183.21C393.09 180.61 395.52 179.16 396.01 178.87C396.01 178.87 396.01 178.87 396.01 178.87C396.01 178.87 396.01 178.87 396.01 178.87C406.15 172.17 425.62 162.31 441.85 167.83C474.7 178.87 482 235.28 467.81 279.06C467.78 279.19 467.65 279.84 467.4 281.03C467.65 282.21 467.78 282.87 467.81 283C471.05 301.14 472.27 329.15 461.32 360.31C454.02 380.82 442.66 399.35 427.65 415.13C427.54 415.26 427 415.92 426.03 417.1C425.78 418.52 425.65 419.31 425.62 419.47C424.81 423.41 423.19 429.72 418.72 435.25C411.42 441.95 404.93 445.11 401.28 446.29M183.05 460.09C178.18 450.63 180.61 441.16 181.83 438.01C183.86 435.64 187.1 432.49 191.57 430.51C196.03 428.54 200.49 427.75 204.14 427.75C205.76 432.88 208.2 438.8 213.06 444.71C216.31 449.05 219.96 452.21 223.61 454.57C219.55 455.36 215.09 455.76 210.63 454.97C209.71 454.81 205.11 454.02 196.84 452.6C199.76 460.41 201.38 464.75 201.71 465.62C204.55 472.72 212.25 484.15 225.23 486.92C222.8 488.49 220.77 490.07 218.34 492.04C212.66 497.56 209.01 503.48 206.98 509C206.17 507.82 205.36 506.24 204.55 504.66C199.68 494.8 200.49 485.73 201.3 481C201.38 480.6 201.79 478.63 202.52 475.08L196.43 472.72C189.94 469.3 185.48 465.09 183.05 460.09ZM94.62 244.35C99.48 249.08 105.57 253.42 112.47 256.57C126.26 263.28 139.64 265.25 150.6 265.25C152.22 265.25 153.84 265.25 155.46 265.25C156.27 269.2 157.09 273.14 158.3 277.48C150.19 280.63 135.59 283.79 120.58 277.08C110.44 272.35 104.35 264.46 101.11 258.94C101.11 258.94 101.11 258.94 101.11 258.94L99.48 255C97.32 250.79 95.7 247.24 94.62 244.35ZM113.68 290.89C122.61 295.23 131.53 296.41 139.24 296.41C146.54 296.41 153.03 295.23 158.3 293.65C157.9 298.78 157.49 303.9 157.49 309.82C152.62 311.4 147.76 312.58 142.89 312.58C135.59 312.98 128.29 312.19 120.98 309.82C116.52 308.24 105.97 303.12 100.3 291.28C98.27 286.94 97.05 282.61 96.65 278.66C101.51 283.79 107.19 287.73 113.68 290.89M125.04 327.96C129.91 328.75 134.78 329.54 139.64 329.54C141.27 329.54 142.89 329.54 144.51 329.54C149.38 329.15 154.25 328.36 158.71 327.18C159.52 333.49 160.33 340.19 161.95 346.9C157.9 348.08 152.62 349.26 146.54 349.26C140.86 349.26 135.59 348.08 130.31 345.71C128.29 343.35 125.45 339.01 124.63 333.49C124.63 331.12 124.63 329.54 125.04 327.96M146.13 364.65C146.54 364.65 147.35 364.65 147.76 364.65C153.84 364.65 160.33 363.86 166.42 361.88C166.82 363.07 167.23 364.25 167.63 365.43C168.04 367.01 168.85 368.19 169.26 369.77C167.63 370.17 165.6 370.56 163.98 371.35C159.11 373.32 155.46 376.08 153.03 378.84C149.78 377.27 146.54 375.29 143.29 372.14C140.86 369.38 138.83 367.01 137.61 364.25C140.45 364.25 143.29 364.65 146.13 364.65M163.17 392.65C163.9 391.47 164.31 390.81 164.39 390.68C165.2 389.49 167.23 387.52 169.66 386.73C172.09 385.94 174.53 385.94 176.15 386.34C181.02 395.8 186.7 404.88 193.59 413.55C190.75 414.34 187.51 415.13 184.26 416.71C179.8 418.68 175.34 421.84 172.09 425.39C168.85 423.41 164.39 420.26 161.55 414.74C156.27 403.3 162.76 393.04 163.17 392.65M458.48 415.92C455.23 414.34 452.39 413.55 449.15 412.76C455.64 404.09 461.72 395.02 466.59 385.55C468.21 385.15 470.65 385.15 473.08 385.94C475.92 387.13 477.54 388.7 478.35 389.89C478.48 390.09 479.45 391.66 479.57 391.86C479.98 392.25 486.06 402.51 481.19 413.55C478.76 419.07 474.3 422.23 470.65 424.2C467 421.05 462.94 418.29 458.48 415.92M478.76 371.35C476.73 370.56 475.11 370.17 473.49 369.77C473.89 368.19 474.7 367.01 475.11 365.43C475.51 364.25 475.92 363.07 476.33 361.88C482.41 363.86 488.5 364.65 494.99 364.65C495.39 364.65 496.2 364.65 496.61 364.65C501.48 364.65 505.94 363.86 510.81 362.67C510.4 367.8 508.37 372.53 504.72 375.69C500.26 379.63 494.99 380.42 491.74 380.42C489.31 377.27 485.25 373.72 478.76 371.35M496.2 348.87C490.12 348.87 484.84 348.08 480.79 346.5C482.41 339.8 483.22 333.09 484.03 326.78C488.9 327.96 493.36 328.75 498.23 329.15C499.85 329.15 501.48 329.15 503.1 329.15C507.97 329.15 512.83 328.75 517.7 327.57C517.7 329.15 517.7 330.73 517.7 332.7C516.89 338.22 514.46 342.56 512.02 344.92C507.15 347.29 501.88 348.47 496.2 348.87M499.45 312.98C494.58 312.58 489.71 311.79 484.84 310.22C484.84 304.3 484.44 299.17 484.03 294.04C489.31 295.62 495.8 296.8 503.1 296.8C511.21 296.8 519.73 295.23 528.65 291.28C535.55 288.13 540.82 284.18 545.28 279.84C544.88 283.79 544.07 288.13 542.04 292.07C535.96 304.3 525 309.43 521.35 310.61C514.05 312.58 506.75 313.77 499.45 312.98M543.26 255L541.23 258.55C541.23 258.55 541.23 258.55 541.23 258.55C537.98 264.07 531.9 271.96 521.76 276.69C506.75 283.79 492.15 280.24 484.03 277.08C485.25 273.14 486.06 268.8 486.87 264.86C488.5 264.86 490.12 264.86 491.74 264.86C502.69 264.86 515.67 262.88 529.87 256.18C536.77 253.02 542.85 248.69 547.72 243.95C546.5 248.69 544.47 252.24 543.26 255M507.97 141.01C511.21 141.4 515.67 142.59 519.32 146.14C524.19 150.87 524.6 156.39 525 158.76C525 165.07 523.79 181.24 510.81 195.44C503.5 203.33 494.99 208.06 488.09 210.43C486.06 200.96 483.22 192.28 479.57 184.79C486.06 180.06 491.33 174.54 495.8 167.83C501.48 159.55 505.53 150.48 507.97 141.01M475.11 135.09C479.17 127.2 482.41 119.32 484.44 110.64C485.66 111.43 486.87 112.61 488.09 113.79C494.17 120.89 493.36 129.18 492.96 131.54C492.96 131.54 492.96 131.54 492.96 131.54C492.15 138.25 489.31 148.11 482.41 158.36C479.17 163.1 475.11 167.04 470.65 170.59C466.59 165.86 462.13 161.52 457.67 158.36C464.56 151.66 470.24 143.77 475.11 135.09M445.5 119.71C450.77 107.09 453.61 93.68 454.42 79.87C457.26 80.66 460.1 82.24 462.94 84.61C468.62 89.73 469.43 96.05 469.84 98.81C468.62 109.06 465.37 118.92 460.51 127.99C455.64 137.07 449.15 144.95 441.04 151.66C436.17 150.48 431.71 150.48 426.84 150.48C434.14 141.8 440.63 131.94 445.5 119.71M408.18 55.81C412.64 55.81 417.91 56.6 423.59 59.36C431.3 63.31 436.17 68.83 438.6 72.77C438.6 86.97 435.76 100.78 430.49 113.79C421.16 136.67 405.34 152.05 392.36 161.52C388.3 156.39 382.22 150.48 374.1 145.74C380.19 136.67 389.92 120.89 396.01 107.48C402.9 91.71 406.96 74.35 408.18 55.81M319.34 32.94C320.15 32.94 320.97 32.94 321.37 32.94C356.66 32.94 383.03 46.74 391.95 52.27C391.14 70.01 387.08 86.19 380.59 100.78C374.51 114.19 363.96 130.75 358.28 139.04C348.14 135.88 338.41 135.88 331.51 136.28C325.43 120.11 321.37 103.54 319.34 86.58C317.31 68.83 317.31 50.69 319.34 32.94M249.98 53.05C256.47 48.72 275.53 38.07 302.71 34.12C301.09 52.27 301.09 70.41 303.52 88.55C305.96 109.06 311.23 128.78 318.94 148.11C321.37 156.39 325.43 164.67 330.29 171.77C332.73 175.72 335.57 179.27 338.81 182.42C332.32 183.61 326.64 184 321.78 184C307.98 178.08 274.72 160.73 257.68 122.08C245.11 94.07 247.14 68.04 249.98 53.05M219.15 59.36C224.02 57 228.48 56.21 232.54 55.81C230.1 73.17 229.7 99.6 241.86 127.99C251.19 148.9 264.58 164.28 277.56 175.72C269.04 172.56 261.74 169.01 256.87 166.25C256.87 166.21 256.87 165.9 256.87 165.86C254.44 164.28 251.6 162.7 248.36 160.73C239.03 153.63 221.99 138.64 211.85 113.4C206.57 100.38 203.73 86.58 203.73 72.38C206.98 68.83 211.44 62.91 219.15 59.36M179.8 84.61C182.64 82.24 185.48 80.66 188.32 79.87C189.13 93.68 192.38 107.09 197.24 119.71C202.11 131.94 208.6 142.19 215.5 150.48C211.04 150.08 206.57 150.48 201.71 151.66C194 144.95 187.1 136.67 182.24 127.99C177.37 118.92 174.12 109.06 172.91 98.81C173.31 96.05 174.12 89.73 179.8 84.61M155.06 114.19C156.27 113.01 157.49 111.82 158.71 111.03C160.74 119.71 163.98 127.6 168.04 135.49C172.91 144.16 178.58 152.05 185.89 158.76C181.02 161.91 176.56 166.25 172.91 170.99C168.44 167.44 164.39 163.49 161.14 158.76C154.25 148.9 151.41 138.64 150.6 131.94C150.6 131.94 150.6 131.94 150.6 131.94C149.78 129.57 148.97 121.29 155.06 114.19M123.42 146.14C127.07 142.59 131.53 141.4 134.78 141.01C137.21 150.48 141.27 159.94 146.94 167.83C151.41 174.14 157.09 180.06 163.17 184.79C159.52 192.28 156.27 200.96 154.65 210.43C147.76 208.06 139.24 203.72 131.94 195.44C119.36 181.63 117.74 165.46 117.74 158.76C118.14 156.39 118.96 150.48 123.42 146.14M91.37 208.46C93.4 195.04 98.67 184.79 104.35 176.9C106.79 185.97 111.25 196.23 120.17 205.69C131.12 217.53 143.7 223.44 153.03 226.2C152.62 233.3 152.62 241.19 153.43 249.08C144.92 249.47 132.75 248.29 120.17 242.38C103.95 234.88 93.81 218.71 90.97 213.58C90.56 211.61 90.97 210.03 91.37 208.46M44.72 335.85C44.72 292.47 55.27 251.84 73.93 215.55C73.12 234.88 78.8 250.26 83.26 259.73C80.83 267.22 77.58 283 85.69 299.17C91.78 311.79 101.51 318.89 108.81 322.84C108 326.39 107.6 330.73 108.41 335.46C109.63 344.92 114.09 351.63 117.33 355.97C118.14 363.07 121.39 374.11 131.12 383.58C135.59 387.92 140.45 391.07 144.92 393.44C142.89 400.54 141.27 410.79 146.54 421.44C151 430.91 158.71 436.43 164.39 439.58C162.76 446.68 162.36 457.33 168.04 468.38C172.5 476.66 178.58 481.79 183.86 485.34C183.45 492.44 183.86 502.3 189.13 512.95C192.38 519.65 197.24 525.96 202.92 530.7C202.92 540.16 205.36 549.63 209.41 558.3C212.66 565.01 217.12 571.32 222.39 576.84C223.61 580.39 225.23 585.13 228.48 590.25C121.39 552.39 44.72 452.6 44.72 335.85M237.81 548.44C236.59 553.97 233.75 557.91 230.91 560.67C228.48 557.52 226.04 554.36 224.42 550.42C220.77 542.92 219.15 534.64 219.55 525.96C219.55 525.8 219.55 524.54 219.55 524.38C219.96 520.44 221.58 510.97 229.29 503.88C234.56 499.14 240.24 497.17 244.7 495.99C241.86 499.54 239.43 503.48 237.4 508.21C237.4 508.25 237.4 508.57 237.4 508.61C233.75 517.29 233.75 527.15 237 537.01C238.21 541.34 238.21 544.89 237.81 548.44M272.69 601.3C267.42 600.51 260.52 598.14 254.03 593.41C246.33 587.49 242.27 580.79 239.84 575.26C245.11 570.93 252.01 563.43 254.03 551.6C255.25 545.29 254.85 539.37 252.82 533.06C251.6 528.72 250.38 521.62 253.22 514.92C254.85 510.58 257.28 507.03 259.71 504.66C262.96 506.64 266.2 508.61 269.85 510.58C267.01 516.1 264.99 522.41 264.18 528.33C261.74 543.32 265.8 555.54 269.45 563.04C271.88 568.95 273.5 575.26 274.32 581.58C274.72 587.89 274.32 594.59 272.69 601.3M313.66 606.82C309.61 615.5 303.93 621.41 299.87 624.57C296.22 621.81 290.95 616.68 287.3 609.19C290.14 599.72 291.35 589.46 290.54 580C289.73 571.72 287.7 563.83 284.46 556.33C282.43 551.6 278.78 542.13 280.4 530.7C281.21 525.96 282.83 521.23 284.86 516.89C292.57 519.65 301.49 521.62 310.82 522.81C309.61 528.72 309.61 535.03 310.01 540.95C310.82 550.42 313.26 555.94 315.29 561.07C317.31 565.4 318.53 568.56 318.94 574.87C320.56 589.07 314.47 605.24 313.66 606.82M363.56 581.58C364.37 593.01 356.66 606.82 356.66 606.82C352.61 615.5 346.52 621.41 342.87 624.57C339.22 621.81 334.35 616.68 330.29 609.19C332.73 602.48 336.79 587.49 335.97 572.9C335.16 563.83 333.13 558.7 331.11 553.97C329.08 549.63 327.46 546.08 327.05 538.98C326.64 533.46 327.05 527.93 328.27 522.41C340.44 521.62 351.79 518.86 361.53 514.92C363.56 518.47 365.18 523.2 365.59 528.72C366.4 540.56 360.72 549.23 357.88 552.78C357.64 553.07 356.42 554.52 354.23 557.12L357.07 562.25C360.85 569.35 363.02 575.79 363.56 581.58ZM321.37 507.03C292.16 507.03 269.04 492.44 257.28 482.97C259.31 482.18 261.34 481.79 263.36 481C267.42 479.82 271.07 478.63 275.13 477.45C282.43 485.34 298.65 498.75 321.78 498.75C322.18 498.75 322.59 498.75 322.99 498.75C345.3 498.35 361.12 485.34 368.43 477.45C372.48 478.63 376.13 479.82 380.19 481C382.22 481.79 384.25 482.58 386.27 482.97C373.7 492.04 350.98 507.03 321.37 507.03M405.34 567.77C404.85 569.19 404.58 569.98 404.53 570.14C402.9 575.66 399.25 585.52 388.71 593.41C385.06 596.17 381.41 598.14 377.75 599.32C379.38 594.2 380.19 587.89 379.78 580.79C379.38 573.29 377.35 565.4 373.7 558.7C377.75 552.39 382.62 541.74 381.41 528.33C381 520.44 378.57 513.74 375.73 508.61C382.62 505.06 388.3 501.11 392.76 497.56C394.39 499.93 396.41 502.69 397.23 506.24C400.07 515.31 396.82 523.2 395.2 526.36C395.04 526.7 394.22 528.41 392.76 531.48C395.2 533.85 396.55 535.17 396.82 535.43C399.66 538.19 403.31 542.92 404.93 549.63C407.77 556.73 406.56 563.43 405.34 567.77M413.86 501.51C412.23 495.99 409.8 491.25 406.96 487.7C408.58 488.1 410.21 488.1 411.83 488.1C411.83 488.1 412.23 488.1 412.23 488.1C414.67 492.04 416.29 495.99 417.91 500.33C421.16 508.61 422.78 517.29 423.59 526.36C423.59 530.7 423.59 536.61 421.56 543.32C419.94 537.8 417.1 532.67 413.45 527.93C415.07 522.02 416.7 512.16 413.86 501.51M414.26 589.46C417.51 584.34 419.13 579.6 420.35 576.05C425.62 570.53 430.08 564.22 433.33 557.52C437.38 548.84 439.41 539.37 439.82 529.91C445.5 524.78 450.36 518.86 453.61 512.16C458.48 501.9 459.29 491.65 458.88 484.55C464.16 481.39 470.24 475.87 474.7 467.59C480.38 456.54 479.98 445.9 478.35 438.8C484.44 435.64 491.74 430.12 496.2 420.65C500.66 411.58 500.26 402.51 498.64 395.8C503.91 395.02 509.99 392.65 515.67 387.52C525.41 379.24 529.06 366.22 526.22 353.6C529.46 349.26 533.12 342.95 533.93 334.67C534.33 330.33 534.33 326.39 533.52 322.05C540.82 318.1 550.56 311 556.64 298.38C564.76 282.21 561.51 266.43 559.08 258.94C563.94 249.47 569.62 234.09 568.41 214.77C587.07 251.05 597.61 292.07 597.61 335.06C598.02 452.6 521.35 552.39 414.26 589.46" id="e2mDM6liQk"></path><path d="M441.85 292.86C432.92 274.32 413.45 262.1 391.95 262.1C390.74 262.1 389.52 262.1 388.3 262.1C389.71 261.89 396.74 260.83 409.39 258.94L435.36 269.2L441.44 254.21L411.02 242.38L341.65 252.63L344.09 268.41C365.02 265.33 376.65 263.62 378.97 263.28C362.75 266.83 348.95 277.48 341.65 292.47C341.36 293.1 339.87 296.25 337.19 301.93C343.52 303.12 347.03 303.77 347.74 303.9C356.66 305.48 365.99 306.67 374.92 307.45C374.92 307.85 374.92 307.85 374.92 308.24C374.92 316.92 382.22 324.41 391.55 324.41C400.47 324.41 408.18 317.31 408.18 308.24C408.18 307.85 408.18 307.85 408.18 307.45C417.51 306.67 426.43 305.88 435.36 303.9C436.09 303.8 439.74 303.27 446.31 302.33C443.63 296.65 442.14 293.49 441.85 292.86ZM392.36 292.47C392.36 292.47 392.36 292.47 392.36 292.47C382.62 292.47 373.29 291.68 363.96 290.49C371.26 283 381.41 278.27 392.36 278.27C403.31 278.27 413.45 283 420.75 290.49C411.02 291.68 401.69 292.47 392.36 292.47" id="c3prZcWwYW"></path><path d="M206.98 269.59L232.94 259.34C245.6 261.23 252.63 262.28 254.03 262.49C252.82 262.49 251.6 262.49 250.38 262.49C229.29 262.49 209.82 274.72 200.49 293.26C200.19 293.89 198.7 297.04 196.03 302.72C202.36 303.9 205.87 304.56 206.57 304.69C215.5 306.27 224.83 307.45 233.75 308.24C233.75 308.64 233.75 308.64 233.75 309.03C233.75 317.71 241.05 325.2 250.38 325.2C259.31 325.2 267.01 318.1 267.01 309.03C267.01 308.64 267.01 308.64 267.01 308.24C275.13 307.85 283.24 306.67 290.95 305.48C290.95 309.58 290.95 330.09 290.95 367.01L307.58 367.01L307.58 254.6L231.32 243.56L200.9 254.6L206.98 269.59ZM250.79 292.47C250.79 292.47 250.79 292.47 250.79 292.47C241.05 292.47 231.72 291.68 222.39 290.49C229.7 283 239.84 278.27 250.79 278.27C261.74 278.27 271.88 283 279.18 290.49C269.45 291.68 260.12 292.47 250.79 292.47M290.95 279.45C283.65 271.56 273.5 266.04 262.96 263.67C264.82 263.94 274.15 265.25 290.95 267.62C290.95 274.72 290.95 278.66 290.95 279.45Z" id="c1AzEQQ3d8"></path></defs><g><g><g><g><use xlink:href="#e2mDM6liQk" opacity="1" fill="#317ff9" fill-opacity="1"></use><g><use xlink:href="#e2mDM6liQk" opacity="1" fill-opacity="0" stroke="#000000" stroke-width="1" stroke-opacity="0"></use></g></g><g><use xlink:href="#c3prZcWwYW" opacity="1" fill="#317ff9" fill-opacity="1"></use><g><use xlink:href="#c3prZcWwYW" opacity="1" fill-opacity="0" stroke="#000000" stroke-width="1" stroke-opacity="0"></use></g></g><g><use xlink:href="#c1AzEQQ3d8" opacity="1" fill="#317ff9" fill-opacity="1"></use><g><use xlink:href="#c1AzEQQ3d8" opacity="1" fill-opacity="0" stroke="#000000" stroke-width="1" stroke-opacity="0"></use></g></g></g></g></g></svg>